<svg width="29" height="32" viewBox="0 0 29 32" fill="none" xmlns="http://www.w3.org/2000/svg">
<g clip-path="url(#clip0_327_325)">
<path d="M18.2606 0.108643C19.4191 0.32596 20.6145 0.597607 21.7362 1.01413L21.681 14.2343L25.3957 14.3248L25.3037 17.8019L21.773 17.7114L21.681 31.0945C20.6512 31.4024 19.4743 31.674 18.2606 31.8008V0.108643Z" fill="#242424"/>
<path d="M18.3526 0.30785C19.4743 0.434619 20.5777 0.688156 21.5891 1.05035V14.2343V14.4154H21.773H25.2118V17.6208H21.773H21.5891V17.8019V30.9677C20.5777 31.3299 19.4743 31.5835 18.3526 31.7102V0.30785ZM18.1687 0.108643V31.9094C19.4191 31.7827 20.6328 31.511 21.773 31.0945V17.8019H25.3957V14.2343H21.773V0.923583C20.6328 0.507058 19.4191 0.235411 18.1687 0.108643Z" fill="#242424"/>
<path d="M14.454 31.8007C13.2403 31.674 12.0634 31.4023 10.9784 31.0039L11.0336 17.8019L7.31897 17.7113H3.86177C3.93533 19.0695 4.30311 20.2648 4.85479 21.3876C5.44325 22.6372 6.25238 23.7781 7.24541 24.7741L7.22702 29.3016C6.96957 28.9756 6.58339 28.7039 6.2156 28.3961C5.33292 27.7079 4.5054 26.9111 3.78821 26.0237C3.47559 25.6615 3.19975 25.2631 2.92391 24.8647C2.15156 23.7419 1.54471 22.5466 1.12176 21.3152C0.698801 20.2105 0.42296 19.0152 0.294235 17.7837C0.220678 17.1861 0.183899 16.5885 0.183899 16.009C0.183899 15.4295 0.220678 14.8137 0.294235 14.2523C0.42296 13.0209 0.698801 11.8256 1.12176 10.7209C1.5631 9.47135 2.15156 8.27611 2.90552 7.17141C3.18136 6.75488 3.47559 6.37458 3.78821 5.99427C4.5054 5.125 5.29614 4.32817 6.17883 3.62189C6.565 3.31402 6.95118 3.02427 7.37413 2.75262C8.49588 2.01012 9.70958 1.4125 10.9784 0.995971C12.1002 0.579446 13.3139 0.307799 14.5644 0.18103L14.454 31.8007ZM7.22702 7.31629C6.25238 8.23989 5.46164 9.3808 4.85479 10.6304C4.30311 11.7532 3.93533 12.9484 3.76982 14.198L7.31897 14.3067H10.9417L11.0336 4.78092C9.63602 5.26988 8.4775 6.06671 7.44769 7.04464L7.31897 7.02653H7.22702V7.31629Z" fill="#242424"/>
<path d="M14.3621 0.30785V31.6921C13.2403 31.5653 12.137 31.3299 11.1256 30.9677V17.8019V17.6208H10.9417H7.31896H3.86177H3.65948L3.67787 17.82C3.82499 18.979 4.15599 20.1018 4.65251 21.1703H3.71465V21.5325H4.8364C5.40647 22.7278 6.19721 23.8325 7.13507 24.7923V28.4686V28.9756C6.85923 28.7764 6.565 28.5591 6.27077 28.3237C5.38808 27.6536 4.57895 26.8568 3.84338 25.9513C3.53076 25.5891 3.25492 25.1907 2.99747 24.8104C2.22511 23.6876 1.61827 22.5105 1.19531 21.279C0.772355 20.1743 0.514904 18.9972 0.386179 17.7657C0.312622 17.1862 0.275843 16.5886 0.275843 16.009C0.275843 15.4114 0.312622 14.8319 0.386179 14.2524C0.514904 13.0209 0.790745 11.8438 1.2137 10.7391C1.63665 9.48951 2.2435 8.31238 2.99747 7.20768C3.23653 6.84548 3.51237 6.48329 3.86177 6.04865C4.57895 5.19749 5.36969 4.40066 6.25238 3.69438C6.69372 3.33219 7.06151 3.07865 7.4293 2.84322C8.53266 2.10072 9.74636 1.5031 10.9968 1.08657C12.0634 0.706266 13.1852 0.434619 14.3621 0.30785ZM7.44769 6.93603H7.31896H7.13507V7.11713V7.2439C6.16043 8.22183 5.36969 9.36274 4.78123 10.5942C4.21116 11.7351 3.84338 12.9485 3.67787 14.1981L3.65948 14.4154H3.86177H7.31896H10.9417H11.1256V14.2343V4.78097V4.49121L10.8681 4.59987C9.59924 5.17938 8.4591 5.9581 7.44769 6.93603ZM14.546 0.108643C13.2955 0.235411 12.0818 0.507058 10.9417 0.923583C9.65441 1.35822 8.44071 1.95584 7.31896 2.69834C6.89601 2.96999 6.50983 3.25975 6.12365 3.56761C5.24097 4.27389 4.43184 5.07072 3.71465 5.93999C3.40203 6.3203 3.1078 6.70061 2.83196 7.11713C2.078 8.22183 1.47115 9.41707 1.02981 10.6848C0.606851 11.8076 0.331011 13.0028 0.202286 14.2343C0.128728 14.8138 0.0919495 15.4114 0.0919495 16.009C0.0919495 16.6067 0.128728 17.2043 0.202286 17.8019C0.331011 19.0334 0.606851 20.2286 1.02981 21.3514C1.47115 22.6372 2.09639 23.8325 2.85035 24.9191C3.12619 25.3175 3.40203 25.7159 3.71465 26.0781C4.43184 26.9655 5.25936 27.7804 6.16043 28.4686C6.52822 28.7764 6.9144 29.0481 7.31896 29.3197V28.4686V24.7198C6.34433 23.7419 5.5352 22.601 4.94674 21.3514C4.39506 20.2467 4.02727 19.0696 3.86177 17.8019H7.31896H10.9417V31.0945C12.0818 31.511 13.2955 31.7827 14.546 31.9094V0.108643ZM3.86177 14.2343C4.02727 12.9847 4.39506 11.7895 4.94674 10.6848C5.5352 9.43518 6.34433 8.29427 7.31896 7.31634V7.11713H7.52125C8.51427 6.15731 9.6728 5.36048 10.9417 4.78097V14.2343H7.31896H3.86177Z" fill="#242424"/>
<path d="M25.3957 14.1437L25.4876 10.6847V2.71643C25.7451 3.06052 26.1497 3.31405 26.5174 3.62192C27.4369 4.34631 28.246 5.14314 28.9264 6.01241L28.9081 7.099V14.1256H25.3957V14.1437Z" fill="#242424"/>
<path d="M25.5796 3.06052C25.8738 3.25972 26.1864 3.47704 26.4623 3.71247C27.345 4.41875 28.1541 5.19747 28.8161 6.04863V7.13522V10.6847V14.0532H25.5796V10.6847V7.31632V7.11711V3.56759V3.06052ZM25.3957 2.71643V3.56759V7.11711V7.31632V10.6847V14.2343H28.8529H29V10.6847V7.11711V5.97619C28.3012 5.08881 27.4737 4.27387 26.5726 3.56759C26.2048 3.25972 25.8003 2.98808 25.3957 2.71643Z" fill="#242424"/>
<path d="M25.4876 17.8019L28.8529 17.8924L28.9081 21.3514V26.0418C28.2093 26.893 27.4001 27.6898 26.4807 28.3961C26.1497 28.6678 25.837 28.9032 25.4876 29.1386V17.8019Z" fill="#242424"/>
<path d="M28.8161 17.983V21.3514V24.919V25.9875C28.1173 26.8568 27.3082 27.6536 26.4255 28.3418C26.1497 28.5772 25.8738 28.7945 25.5796 28.9756V28.4867V24.9371V24.7379V21.3695V17.983H28.8161ZM29 17.8019H28.8529H25.3957V21.3514V24.7198V24.919V28.4685V29.3016C25.8003 29.0481 26.168 28.7764 26.5358 28.4685C27.4553 27.7623 28.2828 26.9473 29 26.0418V24.919V21.3514V17.8019Z" fill="#242424"/>
</g>
<defs>
<clipPath id="clip0_327_325">
<rect width="29" height="32" fill="white"/>
</clipPath>
</defs>
</svg>
