<svg width="24" height="24" viewBox="0 0 24 24" fill="none" xmlns="http://www.w3.org/2000/svg">
<path d="M22.212 5.65605C21.4489 5.99365 20.6396 6.21542 19.811 6.31405C20.6841 5.79119 21.3373 4.96879 21.649 4.00005C20.829 4.48805 19.93 4.83005 18.994 5.01505C18.3646 4.34163 17.5304 3.89501 16.621 3.74463C15.7116 3.59425 14.7779 3.74854 13.9653 4.1835C13.1526 4.61846 12.5064 5.30973 12.1271 6.14984C11.7478 6.98995 11.6568 7.93183 11.868 8.82905C10.2049 8.74584 8.57797 8.31378 7.09274 7.56091C5.60752 6.80805 4.29724 5.75122 3.247 4.45905C2.87529 5.0975 2.67996 5.82328 2.681 6.56205C2.681 8.01205 3.42 9.29305 4.541 10.043C3.87702 10.0221 3.22765 9.84279 2.647 9.52005V9.57105C2.64697 10.5369 2.98104 11.4731 3.59253 12.2207C4.20403 12.9684 5.05532 13.4815 6.002 13.673C5.38564 13.8403 4.7393 13.8649 4.112 13.745C4.37893 14.5764 4.89922 15.3035 5.6 15.8244C6.30078 16.3454 7.14696 16.6341 8.02 16.65C7.15236 17.3315 6.15889 17.8352 5.09641 18.1324C4.03393 18.4296 2.92329 18.5144 1.828 18.382C3.73972 19.6114 5.96511 20.2641 8.238 20.262C15.932 20.262 20.138 13.889 20.138 8.36205C20.138 8.18205 20.134 8.00005 20.126 7.82105C20.9444 7.22941 21.6508 6.49561 22.212 5.65605Z" fill="#242424"/>
</svg>
